<svg xmlns="http://www.w3.org/2000/svg" width="200" height="200" version="1" viewBox="0 0 500 500"><path fill="#5E8CF4" d="M401.7 2.6c-.3.3-6.7 3.2-14.2 6.5-20.5 8.8-61.7 29.7-78.5 39.7-1.9 1.2-4.8 2.9-6.5 3.8-25.9 14.5-77 50.4-101.5 71.4-41.7 35.8-78.5 76.5-98 108.5-2.1 3.4-2.2 3.7-.4 2.5 1-.8 5.4-4.1 9.7-7.3 13.6-10.2 30.9-19.7 35.8-19.7.6 0-1.2 2.6-3.9 5.7-13 15.1-26 40.9-36.6 72.4-4.4 13.5-11.5 38.8-12.3 44.4-.2 1.6-.6 3.7-.9 4.5-1.9 5.2-4.1 26-2.7 26 .4 0 2.3-2 4-4.3 6-7.7 29.3-30.7 31.2-30.7.4 0 .4 2.8.1 6.2-1.1 13.1-.1 35.6 2.1 48.6.5 3.1 1.2 7.5 1.5 9.7 1.3 8.4 7.5 32 12.3 46.3 5.8 17.4 14.7 38.6 22 52.7 4.5 8.8 5.1 9.5 4.6 6-.3-2.2-.7-6.3-1-9-.3-2.8-.8-6.4-1-8-2.7-21.1-2.7-79 0-106 3.7-36.7 13.8-73.9 27.3-101 7.2-14.5 19.3-32.1 26.6-38.8 3.2-2.9.8-2-10.8 4.1-12.5 6.6-27.8 16.1-31.8 19.9l-2.6 2.5.9-4.3c4.1-18 16.2-43.8 29.3-62.4 11.6-16.5 29.2-34.4 45.2-46.1 5.7-4.2 10.4-7.8 10.4-8 0-.4-7.7.2-16 1.2s-17.5 3.7-25.5 7.5c-4.4 2.1-8.1 3.6-8.3 3.4-.6-.6 6.2-10.7 11.5-17 19.8-23.7 54.5-51.7 106.2-85.5 16.8-11 67.4-42 68.6-42 .2 0 1.9-.9 3.7-2 1.9-1.1 2.6-2 1.7-2-.9 0-1.8.3-2.2.6z"/></svg>